<svg xmlns="http://www.w3.org/2000/svg" version="1.1" xmlns:xlink="http://www.w3.org/1999/xlink" width="1000" height="1000"><g clip-path="url(#SvgjsClipPath1017)"><rect width="1000" height="1000" fill="#ffffff"></rect><g transform="matrix(15.625,0,0,15.625,0,0)"><svg xmlns="http://www.w3.org/2000/svg" version="1.1" xmlns:xlink="http://www.w3.org/1999/xlink" width="64" height="64"><svg width="64" height="64" viewBox="0 0 64 64" fill="none" xmlns="http://www.w3.org/2000/svg">
<path d="M2.40625 43V21.1818H8.32955V29.7045H16.1705V21.1818H22.0938V43H16.1705V34.4773H8.32955V43H2.40625ZM31.8011 43H23.4062V21.1818H31.7159C33.9602 21.1818 35.8991 21.6186 37.5327 22.4922C39.1733 23.3587 40.4375 24.6087 41.3253 26.2422C42.2202 27.8686 42.6676 29.8182 42.6676 32.0909C42.6676 34.3636 42.2237 36.3168 41.3359 37.9503C40.4482 39.5767 39.1911 40.8267 37.5646 41.7003C35.9382 42.5668 34.017 43 31.8011 43ZM29.3295 37.9716H31.5881C32.6676 37.9716 33.5874 37.7976 34.3473 37.4496C35.1143 37.1016 35.6967 36.5014 36.0945 35.6491C36.4993 34.7969 36.7017 33.6108 36.7017 32.0909C36.7017 30.571 36.4957 29.3849 36.0838 28.5327C35.679 27.6804 35.0824 27.0803 34.294 26.7322C33.5128 26.3842 32.554 26.2102 31.4176 26.2102H29.3295V37.9716Z" fill="black"></path>
<path d="M43.9934 43V39.7188L54.3059 25.9545H44.036V21.1818H61.8485V24.4631L51.536 38.2273H61.8059V43H43.9934Z" fill="#E7000B"></path>
</svg></svg></g></g><defs><clipPath id="SvgjsClipPath1017"><rect width="1000" height="1000" x="0" y="0" rx="350" ry="350"></rect></clipPath></defs></svg>